{
    "asset" : {
        "generator" : "Khronos glTF Blender I/O v3.2.40",
        "version" : "2.0"
    },
    "scene" : 0,
    "scenes" : [
        {
            "name" : "Scene",
            "nodes" : [
                0,
                1,
                2,
                3
            ]
        }
    ],
    "nodes" : [
        {
            "mesh" : 0,
            "name" : "Plane",
            "scale" : [
                4.546140193939209,
                4.546140193939209,
                4.546140193939209
            ],
            "translation" : [
                0,
                -0.008286833763122559,
                0
            ]
        },
        {
            "mesh" : 1,
            "name" : "Cube",
            "scale" : [
                1.7095890045166016,
                1,
                1.656211256980896
            ],
            "translation" : [
                0,
                1.0071698427200317,
                0
            ]
        },
        {
            "mesh" : 2,
            "name" : "Sphere",
            "translation" : [
                0,
                5.675067901611328,
                0
            ]
        },
        {
            "mesh" : 3,
            "name" : "Circle",
            "rotation" : [
                0,
                0,
                0.2995159924030304,
                0.9540913105010986
            ],
            "scale" : [
                2.309224843978882,
                4.079157829284668,
                2.309224843978882
            ],
            "translation" : [
                0,
                5.73066520690918,
                0
            ]
        }
    ],
    "animations" : [
        {
            "channels" : [
                {
                    "sampler" : 0,
                    "target" : {
                        "node" : 3,
                        "path" : "rotation"
                    }
                }
            ],
            "name" : "CircleAction",
            "samplers" : [
                {
                    "input" : 16,
                    "interpolation" : "LINEAR",
                    "output" : 17
                }
            ]
        }
    ],
    "materials" : [
        {
            "doubleSided" : true,
            "emissiveFactor" : [
                0.2018948793411255,
                0.2018948793411255,
                0.2018948793411255
            ],
            "name" : "Material.002",
            "pbrMetallicRoughness" : {
                "baseColorFactor" : [
                    0.09850495308637619,
                    0.09850495308637619,
                    0.09850495308637619,
                    1
                ],
                "metallicFactor" : 0,
                "roughnessFactor" : 0.5
            }
        }
    ],
    "meshes" : [
        {
            "name" : "Plane",
            "primitives" : [
                {
                    "attributes" : {
                        "POSITION" : 0,
                        "NORMAL" : 1,
                        "TEXCOORD_0" : 2
                    },
                    "indices" : 3,
                    "material" : 0
                }
            ]
        },
        {
            "name" : "Cube.005",
            "primitives" : [
                {
                    "attributes" : {
                        "POSITION" : 4,
                        "NORMAL" : 5,
                        "TEXCOORD_0" : 6
                    },
                    "indices" : 7
                }
            ]
        },
        {
            "name" : "Sphere",
            "primitives" : [
                {
                    "attributes" : {
                        "POSITION" : 8,
                        "NORMAL" : 9,
                        "TEXCOORD_0" : 10
                    },
                    "indices" : 11
                }
            ]
        },
        {
            "name" : "Circle.002",
            "primitives" : [
                {
                    "attributes" : {
                        "POSITION" : 12,
                        "NORMAL" : 13,
                        "TEXCOORD_0" : 14
                    },
                    "indices" : 15
                }
            ]
        }
    ],
    "accessors" : [
        {
            "bufferView" : 0,
            "componentType" : 5126,
            "count" : 4,
            "max" : [
                1,
                0,
                1
            ],
            "min" : [
                -1,
                0,
                -1
            ],
            "type" : "VEC3"
        },
        {
            "bufferView" : 1,
            "componentType" : 5126,
            "count" : 4,
            "type" : "VEC3"
        },
        {
            "bufferView" : 2,
            "componentType" : 5126,
            "count" : 4,
            "type" : "VEC2"
        },
        {
            "bufferView" : 3,
            "componentType" : 5123,
            "count" : 6,
            "type" : "SCALAR"
        },
        {
            "bufferView" : 4,
            "componentType" : 5126,
            "count" : 56,
            "max" : [
                1,
                3.003117799758911,
                1
            ],
            "min" : [
                -1,
                -1,
                -1
            ],
            "type" : "VEC3"
        },
        {
            "bufferView" : 5,
            "componentType" : 5126,
            "count" : 56,
            "type" : "VEC3"
        },
        {
            "bufferView" : 6,
            "componentType" : 5126,
            "count" : 56,
            "type" : "VEC2"
        },
        {
            "bufferView" : 7,
            "componentType" : 5123,
            "count" : 84,
            "type" : "SCALAR"
        },
        {
            "bufferView" : 8,
            "componentType" : 5126,
            "count" : 559,
            "max" : [
                0.9999997019767761,
                1,
                0.9999994039535522
            ],
            "min" : [
                -0.9999990463256836,
                -1,
                -0.9999987483024597
            ],
            "type" : "VEC3"
        },
        {
            "bufferView" : 9,
            "componentType" : 5126,
            "count" : 559,
            "type" : "VEC3"
        },
        {
            "bufferView" : 10,
            "componentType" : 5126,
            "count" : 559,
            "type" : "VEC2"
        },
        {
            "bufferView" : 11,
            "componentType" : 5123,
            "count" : 2880,
            "type" : "SCALAR"
        },
        {
            "bufferView" : 12,
            "componentType" : 5126,
            "count" : 128,
            "max" : [
                1.0932108163833618,
                0,
                1.0932108163833618
            ],
            "min" : [
                -1.0932108163833618,
                -0.06015844643115997,
                -1.0932108163833618
            ],
            "type" : "VEC3"
        },
        {
            "bufferView" : 13,
            "componentType" : 5126,
            "count" : 128,
            "type" : "VEC3"
        },
        {
            "bufferView" : 14,
            "componentType" : 5126,
            "count" : 128,
            "type" : "VEC2"
        },
        {
            "bufferView" : 15,
            "componentType" : 5123,
            "count" : 768,
            "type" : "SCALAR"
        },
        {
            "bufferView" : 16,
            "componentType" : 5126,
            "count" : 120,
            "max" : [
                5
            ],
            "min" : [
                0.041666666666666664
            ],
            "type" : "SCALAR"
        },
        {
            "bufferView" : 17,
            "componentType" : 5126,
            "count" : 120,
            "type" : "VEC4"
        }
    ],
    "bufferViews" : [
        {
            "buffer" : 0,
            "byteLength" : 48,
            "byteOffset" : 0
        },
        {
            "buffer" : 0,
            "byteLength" : 48,
            "byteOffset" : 48
        },
        {
            "buffer" : 0,
            "byteLength" : 32,
            "byteOffset" : 96
        },
        {
            "buffer" : 0,
            "byteLength" : 12,
            "byteOffset" : 128
        },
        {
            "buffer" : 0,
            "byteLength" : 672,
            "byteOffset" : 140
        },
        {
            "buffer" : 0,
            "byteLength" : 672,
            "byteOffset" : 812
        },
        {
            "buffer" : 0,
            "byteLength" : 448,
            "byteOffset" : 1484
        },
        {
            "buffer" : 0,
            "byteLength" : 168,
            "byteOffset" : 1932
        },
        {
            "buffer" : 0,
            "byteLength" : 6708,
            "byteOffset" : 2100
        },
        {
            "buffer" : 0,
            "byteLength" : 6708,
            "byteOffset" : 8808
        },
        {
            "buffer" : 0,
            "byteLength" : 4472,
            "byteOffset" : 15516
        },
        {
            "buffer" : 0,
            "byteLength" : 5760,
            "byteOffset" : 19988
        },
        {
            "buffer" : 0,
            "byteLength" : 1536,
            "byteOffset" : 25748
        },
        {
            "buffer" : 0,
            "byteLength" : 1536,
            "byteOffset" : 27284
        },
        {
            "buffer" : 0,
            "byteLength" : 1024,
            "byteOffset" : 28820
        },
        {
            "buffer" : 0,
            "byteLength" : 1536,
            "byteOffset" : 29844
        },
        {
            "buffer" : 0,
            "byteLength" : 480,
            "byteOffset" : 31380
        },
        {
            "buffer" : 0,
            "byteLength" : 1920,
            "byteOffset" : 31860
        }
    ],
    "buffers" : [
        {
            "byteLength" : 33780,
            "uri" : "data:application/octet-stream;base64,"
        }
    ]
}
