{
    "asset" : {
        "generator" : "Khronos glTF Blender I/O v1.7.33",
        "version" : "2.0"
    },
    "scene" : 0,
    "scenes" : [
        {
            "name" : "Scene",
            "nodes" : [
                0,
                1,
                2,
                3,
                4,
                5,
                6,
                7,
                8
            ]
        }
    ],
    "nodes" : [
        {
            "mesh" : 0,
            "name" : "\u043f\u043e\u0434\u0441\u0442\u0430\u0432\u043a\u0430",
            "scale" : [
                4.094002723693848,
                1.1350374221801758,
                4.094002723693848
            ],
            "translation" : [
                0,
                1.3866347074508667,
                0
            ]
        },
        {
            "mesh" : 1,
            "name" : "\u043a\u0440\u0443\u0433 \u043c\u0430\u0434\u0430\u0444\u0430\u043a\u0430",
            "rotation" : [
                0.7071068286895752,
                0,
                0,
                0.7071068286895752
            ],
            "scale" : [
                3.3376920223236084,
                3.3376920223236084,
                3.3376920223236084
            ],
            "translation" : [
                0.024300843477249146,
                7.3837432861328125,
                -0.34429240226745605
            ]
        },
        {
            "mesh" : 2,
            "name" : "\u0448\u0435\u0441\u0442\u0438\u0443\u0433\u043e\u043b\u044c\u043d\u0438\u043a",
            "rotation" : [
                0,
                0,
                0.5111009478569031,
                0.859520673751831
            ],
            "scale" : [
                0.11000953614711761,
                1.7154127359390259,
                0.11000954359769821
            ],
            "translation" : [
                1.5213574171066284,
                9.815437316894531,
                0.10320386290550232
            ]
        },
        {
            "mesh" : 3,
            "name" : "\u0443\u043b\u0433 \u043c\u0430\u0434\u0430\u0444\u0430\u043a\u0430",
            "rotation" : [
                0,
                0,
                0.5725439786911011,
                0.8198740482330322
            ],
            "scale" : [
                3.2535858154296875,
                0.07302191853523254,
                0.07302185893058777
            ],
            "translation" : [
                -0.9440553188323975,
                7.729620933532715,
                -1.1745918989181519
            ]
        },
        {
            "mesh" : 4,
            "name" : "A",
            "rotation" : [
                0.7071068286895752,
                0,
                0,
                0.7071068286895752
            ],
            "translation" : [
                -2.8925154209136963,
                3.738478422164917,
                0
            ]
        },
        {
            "mesh" : 5,
            "name" : "A.001",
            "rotation" : [
                0.7071068286895752,
                0,
                0,
                0.7071068286895752
            ],
            "translation" : [
                -0.1652679145336151,
                11.247430801391602,
                0
            ]
        },
        {
            "mesh" : 6,
            "name" : "A.002",
            "rotation" : [
                0.7071068286895752,
                0,
                0,
                0.7071068286895752
            ],
            "translation" : [
                3.3456954956054688,
                9.037778854370117,
                0.017119821161031723
            ]
        },
        {
            "mesh" : 7,
            "name" : "Text",
            "rotation" : [
                0.7071068286895752,
                0,
                0,
                0.7071068286895752
            ],
            "translation" : [
                -3.2237935066223145,
                12.978412628173828,
                0
            ]
        },
        {
            "mesh" : 8,
            "name" : "Plane",
            "rotation" : [
                0.7071068286895752,
                0,
                0,
                0.7071068286895752
            ],
            "translation" : [
                -4.563665390014648,
                13.059370040893555,
                -0.6804563999176025
            ]
        }
    ],
    "materials" : [
        {
            "doubleSided" : true,
            "name" : "Material.005",
            "pbrMetallicRoughness" : {
                "baseColorFactor" : [
                    0.12402142584323883,
                    0.15328757464885712,
                    0.22658371925354004,
                    1
                ],
                "metallicFactor" : 0,
                "roughnessFactor" : 0
            }
        },
        {
            "doubleSided" : true,
            "name" : "Material.002",
            "pbrMetallicRoughness" : {
                "baseColorFactor" : [
                    0.005316493101418018,
                    0.6925509572029114,
                    0,
                    1
                ],
                "metallicFactor" : 0,
                "roughnessFactor" : 0.5
            }
        },
        {
            "doubleSided" : true,
            "name" : "Material.004",
            "pbrMetallicRoughness" : {
                "baseColorFactor" : [
                    1,
                    0.9390882253646851,
                    0.9503995180130005,
                    1
                ],
                "metallicFactor" : 0,
                "roughnessFactor" : 0.5
            }
        },
        {
            "doubleSided" : true,
            "name" : "Material",
            "pbrMetallicRoughness" : {
                "baseColorFactor" : [
                    0.8000000715255737,
                    0.16892649233341217,
                    0.0021586185321211815,
                    1
                ],
                "metallicFactor" : 0,
                "roughnessFactor" : 0.4000000059604645
            }
        },
        {
            "doubleSided" : true,
            "name" : "Material.003",
            "pbrMetallicRoughness" : {
                "baseColorFactor" : [
                    0,
                    0,
                    0,
                    1
                ],
                "metallicFactor" : 0,
                "roughnessFactor" : 0.5
            }
        }
    ],
    "meshes" : [
        {
            "name" : "Cylinder",
            "primitives" : [
                {
                    "attributes" : {
                        "POSITION" : 0,
                        "NORMAL" : 1,
                        "TEXCOORD_0" : 2
                    },
                    "indices" : 3,
                    "material" : 0
                }
            ]
        },
        {
            "name" : "Circle",
            "primitives" : [
                {
                    "attributes" : {
                        "POSITION" : 4,
                        "NORMAL" : 5,
                        "TEXCOORD_0" : 6
                    },
                    "indices" : 7,
                    "material" : 1
                }
            ]
        },
        {
            "name" : "Cube.005",
            "primitives" : [
                {
                    "attributes" : {
                        "POSITION" : 8,
                        "NORMAL" : 9,
                        "TEXCOORD_0" : 10
                    },
                    "indices" : 11,
                    "material" : 2
                }
            ]
        },
        {
            "name" : "Cube.011",
            "primitives" : [
                {
                    "attributes" : {
                        "POSITION" : 12,
                        "NORMAL" : 13,
                        "TEXCOORD_0" : 14
                    },
                    "indices" : 15,
                    "material" : 3
                }
            ]
        },
        {
            "name" : "Text",
            "primitives" : [
                {
                    "attributes" : {
                        "POSITION" : 16,
                        "NORMAL" : 17,
                        "TEXCOORD_0" : 18
                    },
                    "indices" : 19,
                    "material" : 4
                }
            ]
        },
        {
            "name" : "Text.001",
            "primitives" : [
                {
                    "attributes" : {
                        "POSITION" : 20,
                        "NORMAL" : 21,
                        "TEXCOORD_0" : 22
                    },
                    "indices" : 23,
                    "material" : 4
                }
            ]
        },
        {
            "name" : "Text.002",
            "primitives" : [
                {
                    "attributes" : {
                        "POSITION" : 24,
                        "NORMAL" : 25,
                        "TEXCOORD_0" : 26
                    },
                    "indices" : 27,
                    "material" : 4
                }
            ]
        },
        {
            "name" : "Text.003",
            "primitives" : [
                {
                    "attributes" : {
                        "POSITION" : 28,
                        "NORMAL" : 29,
                        "TEXCOORD_0" : 30
                    },
                    "indices" : 31,
                    "material" : 4
                }
            ]
        },
        {
            "name" : "Plane",
            "primitives" : [
                {
                    "attributes" : {
                        "POSITION" : 32,
                        "NORMAL" : 33,
                        "TEXCOORD_0" : 34
                    },
                    "indices" : 35,
                    "material" : 4
                }
            ]
        }
    ],
    "accessors" : [
        {
            "bufferView" : 0,
            "componentType" : 5126,
            "count" : 296,
            "max" : [
                1.1180001497268677,
                1.0831514596939087,
                1.1096360683441162
            ],
            "min" : [
                -1.1180001497268677,
                -1.1948293447494507,
                -1.1096360683441162
            ],
            "type" : "VEC3"
        },
        {
            "bufferView" : 1,
            "componentType" : 5126,
            "count" : 296,
            "type" : "VEC3"
        },
        {
            "bufferView" : 2,
            "componentType" : 5126,
            "count" : 296,
            "type" : "VEC2"
        },
        {
            "bufferView" : 3,
            "componentType" : 5123,
            "count" : 984,
            "type" : "SCALAR"
        },
        {
            "bufferView" : 4,
            "componentType" : 5126,
            "count" : 994,
            "max" : [
                1.058774709701538,
                0.1458308845758438,
                1.058774709701538
            ],
            "min" : [
                -1.058774709701538,
                0.06745800375938416,
                -1.058774709701538
            ],
            "type" : "VEC3"
        },
        {
            "bufferView" : 5,
            "componentType" : 5126,
            "count" : 994,
            "type" : "VEC3"
        },
        {
            "bufferView" : 6,
            "componentType" : 5126,
            "count" : 994,
            "type" : "VEC2"
        },
        {
            "bufferView" : 7,
            "componentType" : 5123,
            "count" : 1536,
            "type" : "SCALAR"
        },
        {
            "bufferView" : 8,
            "componentType" : 5126,
            "count" : 96,
            "max" : [
                2.1710681915283203,
                2.1003081798553467,
                4.419024207891198e-06
            ],
            "min" : [
                -53.963592529296875,
                -1.9237055778503418,
                -1.839944839477539
            ],
            "type" : "VEC3"
        },
        {
            "bufferView" : 9,
            "componentType" : 5126,
            "count" : 96,
            "type" : "VEC3"
        },
        {
            "bufferView" : 10,
            "componentType" : 5126,
            "count" : 96,
            "type" : "VEC2"
        },
        {
            "bufferView" : 11,
            "componentType" : 5123,
            "count" : 144,
            "type" : "SCALAR"
        },
        {
            "bufferView" : 12,
            "componentType" : 5126,
            "count" : 39,
            "max" : [
                0.9925041198730469,
                3.35430645942688,
                17.08592414855957
            ],
            "min" : [
                -1.0292668342590332,
                -44.97450256347656,
                15.925985336303711
            ],
            "type" : "VEC3"
        },
        {
            "bufferView" : 13,
            "componentType" : 5126,
            "count" : 39,
            "type" : "VEC3"
        },
        {
            "bufferView" : 14,
            "componentType" : 5126,
            "count" : 39,
            "type" : "VEC2"
        },
        {
            "bufferView" : 15,
            "componentType" : 5123,
            "count" : 51,
            "type" : "SCALAR"
        },
        {
            "bufferView" : 16,
            "componentType" : 5126,
            "count" : 17,
            "max" : [
                0.6670000553131104,
                0,
                0
            ],
            "min" : [
                0,
                0,
                -0.6860000491142273
            ],
            "type" : "VEC3"
        },
        {
            "bufferView" : 17,
            "componentType" : 5126,
            "count" : 17,
            "type" : "VEC3"
        },
        {
            "bufferView" : 18,
            "componentType" : 5126,
            "count" : 17,
            "type" : "VEC2"
        },
        {
            "bufferView" : 19,
            "componentType" : 5123,
            "count" : 33,
            "type" : "SCALAR"
        },
        {
            "bufferView" : 20,
            "componentType" : 5126,
            "count" : 135,
            "max" : [
                0.5430000424385071,
                0,
                0
            ],
            "min" : [
                0.07500000298023224,
                0,
                -0.6820000410079956
            ],
            "type" : "VEC3"
        },
        {
            "bufferView" : 21,
            "componentType" : 5126,
            "count" : 135,
            "type" : "VEC3"
        },
        {
            "bufferView" : 22,
            "componentType" : 5126,
            "count" : 135,
            "type" : "VEC2"
        },
        {
            "bufferView" : 23,
            "componentType" : 5123,
            "count" : 324,
            "type" : "SCALAR"
        },
        {
            "bufferView" : 24,
            "componentType" : 5126,
            "count" : 121,
            "max" : [
                0.6630000472068787,
                0,
                0.009000000543892384
            ],
            "min" : [
                0.04800000041723251,
                0,
                -0.6910000443458557
            ],
            "type" : "VEC3"
        },
        {
            "bufferView" : 25,
            "componentType" : 5126,
            "count" : 121,
            "type" : "VEC3"
        },
        {
            "bufferView" : 26,
            "componentType" : 5126,
            "count" : 121,
            "type" : "VEC2"
        },
        {
            "bufferView" : 27,
            "componentType" : 5123,
            "count" : 288,
            "type" : "SCALAR"
        },
        {
            "bufferView" : 28,
            "componentType" : 5126,
            "count" : 284,
            "max" : [
                1.8930001258850098,
                0,
                0.009000000543892384
            ],
            "min" : [
                0.07500000298023224,
                0,
                -0.6910000443458557
            ],
            "type" : "VEC3"
        },
        {
            "bufferView" : 29,
            "componentType" : 5126,
            "count" : 284,
            "type" : "VEC3"
        },
        {
            "bufferView" : 30,
            "componentType" : 5126,
            "count" : 284,
            "type" : "VEC2"
        },
        {
            "bufferView" : 31,
            "componentType" : 5123,
            "count" : 645,
            "type" : "SCALAR"
        },
        {
            "bufferView" : 32,
            "componentType" : 5126,
            "count" : 36,
            "max" : [
                1.1419295072555542,
                0.6826865673065186,
                0.10279384255409241
            ],
            "min" : [
                0.3179304897785187,
                0.6766303181648254,
                -0.612000584602356
            ],
            "type" : "VEC3"
        },
        {
            "bufferView" : 33,
            "componentType" : 5126,
            "count" : 36,
            "type" : "VEC3"
        },
        {
            "bufferView" : 34,
            "componentType" : 5126,
            "count" : 36,
            "type" : "VEC2"
        },
        {
            "bufferView" : 35,
            "componentType" : 5123,
            "count" : 60,
            "type" : "SCALAR"
        }
    ],
    "bufferViews" : [
        {
            "buffer" : 0,
            "byteLength" : 3552,
            "byteOffset" : 0
        },
        {
            "buffer" : 0,
            "byteLength" : 3552,
            "byteOffset" : 3552
        },
        {
            "buffer" : 0,
            "byteLength" : 2368,
            "byteOffset" : 7104
        },
        {
            "buffer" : 0,
            "byteLength" : 1968,
            "byteOffset" : 9472
        },
        {
            "buffer" : 0,
            "byteLength" : 11928,
            "byteOffset" : 11440
        },
        {
            "buffer" : 0,
            "byteLength" : 11928,
            "byteOffset" : 23368
        },
        {
            "buffer" : 0,
            "byteLength" : 7952,
            "byteOffset" : 35296
        },
        {
            "buffer" : 0,
            "byteLength" : 3072,
            "byteOffset" : 43248
        },
        {
            "buffer" : 0,
            "byteLength" : 1152,
            "byteOffset" : 46320
        },
        {
            "buffer" : 0,
            "byteLength" : 1152,
            "byteOffset" : 47472
        },
        {
            "buffer" : 0,
            "byteLength" : 768,
            "byteOffset" : 48624
        },
        {
            "buffer" : 0,
            "byteLength" : 288,
            "byteOffset" : 49392
        },
        {
            "buffer" : 0,
            "byteLength" : 468,
            "byteOffset" : 49680
        },
        {
            "buffer" : 0,
            "byteLength" : 468,
            "byteOffset" : 50148
        },
        {
            "buffer" : 0,
            "byteLength" : 312,
            "byteOffset" : 50616
        },
        {
            "buffer" : 0,
            "byteLength" : 102,
            "byteOffset" : 50928
        },
        {
            "buffer" : 0,
            "byteLength" : 204,
            "byteOffset" : 51032
        },
        {
            "buffer" : 0,
            "byteLength" : 204,
            "byteOffset" : 51236
        },
        {
            "buffer" : 0,
            "byteLength" : 136,
            "byteOffset" : 51440
        },
        {
            "buffer" : 0,
            "byteLength" : 66,
            "byteOffset" : 51576
        },
        {
            "buffer" : 0,
            "byteLength" : 1620,
            "byteOffset" : 51644
        },
        {
            "buffer" : 0,
            "byteLength" : 1620,
            "byteOffset" : 53264
        },
        {
            "buffer" : 0,
            "byteLength" : 1080,
            "byteOffset" : 54884
        },
        {
            "buffer" : 0,
            "byteLength" : 648,
            "byteOffset" : 55964
        },
        {
            "buffer" : 0,
            "byteLength" : 1452,
            "byteOffset" : 56612
        },
        {
            "buffer" : 0,
            "byteLength" : 1452,
            "byteOffset" : 58064
        },
        {
            "buffer" : 0,
            "byteLength" : 968,
            "byteOffset" : 59516
        },
        {
            "buffer" : 0,
            "byteLength" : 576,
            "byteOffset" : 60484
        },
        {
            "buffer" : 0,
            "byteLength" : 3408,
            "byteOffset" : 61060
        },
        {
            "buffer" : 0,
            "byteLength" : 3408,
            "byteOffset" : 64468
        },
        {
            "buffer" : 0,
            "byteLength" : 2272,
            "byteOffset" : 67876
        },
        {
            "buffer" : 0,
            "byteLength" : 1290,
            "byteOffset" : 70148
        },
        {
            "buffer" : 0,
            "byteLength" : 432,
            "byteOffset" : 71440
        },
        {
            "buffer" : 0,
            "byteLength" : 432,
            "byteOffset" : 71872
        },
        {
            "buffer" : 0,
            "byteLength" : 288,
            "byteOffset" : 72304
        },
        {
            "buffer" : 0,
            "byteLength" : 120,
            "byteOffset" : 72592
        }
    ],
    "buffers" : [
        {
            "byteLength" : 72712,
            "uri" : "data:application/octet-stream;base64,"
        }
    ]
}
